<?xml version="1.0" encoding="utf-8"?>
<!-- Generator: Adobe Illustrator 18.0.0, SVG Export Plug-In . SVG Version: 6.00 Build 0)  -->
<!DOCTYPE svg PUBLIC "-//W3C//DTD SVG 1.1//EN" "http://www.w3.org/Graphics/SVG/1.1/DTD/svg11.dtd">
<svg version="1.1" id="Layer_1" xmlns="http://www.w3.org/2000/svg" xmlns:xlink="http://www.w3.org/1999/xlink" x="0px" y="0px"
	 viewBox="0 0 185.1 31.4" enable-background="new 0 0 185.1 31.4" xml:space="preserve">
<g>
	<path fill="#FFFFFF" d="M185.1,19.9c0,6.3-5.2,11.5-11.5,11.5H11.5C5.2,31.4,0,26.2,0,19.9v-8.4C0,5.2,5.2,0,11.5,0h162.2
		c6.3,0,11.5,5.2,11.5,11.5V19.9z"/>
</g>
<rect x="55.2" y="2.4" fill="#46C1BE" width="0.8" height="26.8"/>
<rect x="118.7" y="2.4" fill="#46C1BE" width="0.8" height="26.8"/>
<g>
	
		<rect x="167.2" y="16.8" transform="matrix(0.7071 -0.7071 0.7071 0.7071 38.7186 127.4035)" fill="#46C1BE" width="11.9" height="0.4"/>
	
		<rect x="167.2" y="16.8" transform="matrix(-0.7071 -0.7071 0.7071 -0.7071 283.588 151.3946)" fill="#46C1BE" width="11.9" height="0.4"/>
</g>
</svg>
