<?xml version="1.0" encoding="utf-8"?>
<!-- Generator: Adobe Illustrator 18.0.0, SVG Export Plug-In . SVG Version: 6.00 Build 0)  -->
<!DOCTYPE svg PUBLIC "-//W3C//DTD SVG 1.1//EN" "http://www.w3.org/Graphics/SVG/1.1/DTD/svg11.dtd">
<svg version="1.1" id="Layer_2" xmlns="http://www.w3.org/2000/svg" xmlns:xlink="http://www.w3.org/1999/xlink" x="0px" y="0px"
	 viewBox="0 0 908.7 191" enable-background="new 0 0 908.7 191" xml:space="preserve">
<g>
	<path fill="#FFFFFF" d="M263.9,64.1h-44L210.3,86h-7.1l36.6-80.4h4.2L280.7,86h-7.1L263.9,64.1z M222.4,58.5h39.1l-19.6-44
		L222.4,58.5z"/>
	<path fill="#FFFFFF" d="M292.7,0h6.5v86h-6.5V0z"/>
	<path fill="#FFFFFF" d="M318.1,0h6.5v86h-6.5V0z"/>
	<path fill="#FFFFFF" d="M342.4,8.2c0-2.5,1.9-4.6,4.4-4.6s4.4,2.1,4.4,4.6s-1.9,4.4-4.4,4.4S342.4,10.7,342.4,8.2z M343.7,24.5h6.5
		V86h-6.5V24.5z"/>
	<path fill="#FFFFFF" d="M426.6,24.5V86h-6.4v-6.8c-5.9,4.6-13.8,7.3-23,7.3c-18.1,0-31.8-14.4-31.8-31.6
		c0-17.1,13.7-31.6,31.8-31.6c8.9,0,17.3,3,23,7.6v-6.4H426.6z M420.2,37.5c-5.4-5.1-13.2-8.2-22.2-8.2c-14.8,0-26.2,11.5-26.2,25.6
		c0,14.1,11.5,25.7,26.2,25.7c9.2,0,17-3,22.2-8V37.5z"/>
	<path fill="#FFFFFF" d="M500.8,50.8V86h-6.4V50.8c0-14-8.9-21.4-20.9-21.4c-9.1,0-16.2,2.9-21.8,7.9V86h-6.4V24.5h6.4v6.6
		c5.5-5,13.5-7.8,22.6-7.8C489.9,23.4,500.8,32.4,500.8,50.8z"/>
	<path fill="#FFFFFF" d="M570.5,75.6c-5.5,6.7-13.7,10.8-22.5,10.8c-18.5,0-33.5-14-33.5-31.5c0-17.6,15.1-31.6,33.5-31.6
		c9.1,0,17.1,4.1,22.7,10.6l-4.4,4c-4.3-5.2-11-8.7-18.3-8.7c-14.9,0-27.1,11.4-27.1,25.7c0,14.1,12.2,25.6,27.1,25.6
		c7.2,0,13.8-3.5,18.3-9L570.5,75.6z"/>
	<path fill="#FFFFFF" d="M640.7,57.3h-54.5c1.5,13.7,12.7,23.3,25.8,23.3c8.8,0,16.9-3.4,21.8-9.7l4.4,3.7c-5.7,7.3-15.5,12-27.2,12
		c-18.5,0-31.4-14-31.4-31.5c0-17.6,12.9-31.6,31.4-31.6c18.4,0,29.7,13.2,29.7,32.1V57.3z M586.2,52h48.1
		c-0.8-13.3-9-23.2-23.3-23.2C597.2,28.9,587.3,39,586.2,52z"/>
	<path fill="#FFFFFF" d="M695.1,35.1c-1.2-0.3-3.1-0.7-6-0.7c-6.7,0-8.4,4.2-8.4,11.2v1h13.7v3.6h-13.7V88c0,7.2-5,11.5-11.6,11.5
		c-1.2,0-2.3-0.1-3.2-0.2v-3.6c0.7,0.1,1.5,0.1,2.4,0.1c5,0,8.2-2.6,8.2-9.3V50.2h-7.1v-3.6h7.1v-1.6c0-8.7,3.4-14.3,12.3-14.3
		c3,0,5.1,0.5,6.3,0.9V35.1z"/>
	<path fill="#FFFFFF" d="M740.8,66.2c0,11.2-9.6,20.1-21.4,20.1c-11.8,0-21.5-9-21.5-20.1c0-11.2,9.6-20.2,21.5-20.2
		C731.1,45.9,740.8,54.9,740.8,66.2z M736.7,66.2c0-9.1-7.7-16.4-17.3-16.4S702,57,702,66.2c0,9.1,7.8,16.4,17.4,16.4
		S736.7,75.2,736.7,66.2z"/>
	<path fill="#FFFFFF" d="M754.4,55.3c2.3-5.6,6.9-9.3,13.2-9.3c1.8,0,3.9,0.4,5.9,1.4l-0.6,4.2c-2.2-0.9-4.2-1.3-6.1-1.3
		c-7.7,0-12.5,6.9-12.5,15.5V86h-4.2V46.7h4.2V55.3z"/>
	<path fill="#FFFFFF" d="M803.4,50.2v22.3c0,7.3,3.1,10,8.2,10c2.9,0,4.8-0.4,6.1-0.7v3.4c-1.2,0.4-3.6,0.9-7.4,0.9
		c-6.1,0-11.1-3.9-11.1-11.6V50.2h-6.9v-3.6h6.9V31h4.2v15.7h14.5v3.6H803.4z"/>
	<path fill="#FFFFFF" d="M861,63.5V86h-4.1V63.5c0-9-5.8-13.7-13.4-13.7c-5.8,0-10.4,1.8-13.9,5V86h-4.1V31h4.1v19.8
		c3.5-3.1,8.6-4.8,14.5-4.8C854.1,45.9,861,51.7,861,63.5z"/>
	<path fill="#FFFFFF" d="M908.7,67.6h-34.9c0.9,8.8,8.1,14.9,16.5,14.9c5.6,0,10.8-2.2,13.9-6.2l2.8,2.3c-3.7,4.7-9.9,7.7-17.4,7.7
		c-11.8,0-20.1-9-20.1-20.1c0-11.2,8.2-20.2,20.1-20.2c11.8,0,19,8.5,19,20.5V67.6z M873.8,64.3h30.8c-0.5-8.5-5.8-14.8-14.9-14.8
		C880.8,49.4,874.5,55.9,873.8,64.3z"/>
	<path fill="#FFFFFF" d="M284.2,152.7v26.7c-8.9,7.1-21.2,11.6-34.8,11.6c-23.4,0-42.3-18.1-42.3-40.6s18.9-40.6,42.3-40.6
		c13.2,0,24.2,4.3,31.8,11.4l-4.3,4.8c-6.6-6.2-16.1-9.9-27.5-9.9c-19.6,0-35.6,15.4-35.6,34.3c0,19.2,16,34.6,35.6,34.6
		c11.1,0,20.8-3.5,28.2-9v-17.5h-30.1v-5.8H284.2z"/>
	<path fill="#FFFFFF" d="M307.5,142.6c3.7-8.8,10.7-14.6,20.6-14.6c2.9,0,6,0.6,9.2,2.2l-0.9,6.6c-3.4-1.5-6.6-2.1-9.5-2.1
		c-12,0-19.5,10.8-19.5,24.2v31.7H301v-61.5h6.5V142.6z"/>
	<path fill="#FFFFFF" d="M406.5,161.8H352c1.5,13.7,12.7,23.3,25.8,23.3c8.8,0,16.9-3.4,21.8-9.7l4.4,3.7c-5.7,7.3-15.5,12-27.1,12
		c-18.5,0-31.4-14-31.4-31.5c0-17.6,12.9-31.6,31.4-31.6c18.4,0,29.7,13.2,29.7,32.1V161.8z M352,156.6h48.1
		c-0.8-13.3-9-23.2-23.3-23.2C363,133.4,353.1,143.6,352,156.6z"/>
	<path fill="#FFFFFF" d="M479.1,129.1v61.5h-6.4v-6.8c-5.9,4.6-13.8,7.3-23,7.3c-18.1,0-31.8-14.4-31.8-31.6
		c0-17.1,13.7-31.6,31.8-31.6c8.9,0,17.3,3,23,7.6v-6.4H479.1z M472.7,142.1c-5.4-5.1-13.2-8.2-22.2-8.2
		c-14.8,0-26.2,11.5-26.2,25.6c0,14.1,11.5,25.7,26.2,25.7c9.2,0,17-3,22.2-8V142.1z"/>
	<path fill="#FFFFFF" d="M507.7,134.7v34.9c0,11.4,4.9,15.6,12.9,15.6c4.6,0,7.5-0.6,9.6-1v5.4c-1.8,0.6-5.7,1.5-11.6,1.5
		c-9.6,0-17.3-6-17.3-18.1v-38.2h-10.8v-5.6h10.8v-24.5h6.5v24.5h22.7v5.6H507.7z"/>
	<path fill="#FFFFFF" d="M632.7,184.8v5.8H580v-80.4h6.6v74.6H632.7z"/>
	<path fill="#FFFFFF" d="M704.3,129.1v61.5h-6.4v-6.8c-5.9,4.6-13.8,7.3-23,7.3c-18.1,0-31.8-14.4-31.8-31.6
		c0-17.1,13.7-31.6,31.8-31.6c8.9,0,17.3,3,23,7.6v-6.4H704.3z M697.9,142.1c-5.4-5.1-13.2-8.2-22.2-8.2
		c-14.8,0-26.2,11.5-26.2,25.6c0,14.1,11.5,25.7,26.2,25.7c9.2,0,17-3,22.2-8V142.1z"/>
	<path fill="#FFFFFF" d="M780.5,190.6h-7.3l-21.6-33.1L729.5,178v12.5H723v-86h6.5v64.8l42.8-40.3h8.2l-24.4,23.5L780.5,190.6z"/>
	<path fill="#FFFFFF" d="M846.4,161.8h-54.5c1.5,13.7,12.7,23.3,25.8,23.3c8.8,0,16.9-3.4,21.8-9.7l4.4,3.7
		c-5.7,7.3-15.5,12-27.2,12c-18.5,0-31.4-14-31.4-31.5c0-17.6,12.9-31.6,31.4-31.6c18.4,0,29.7,13.2,29.7,32.1V161.8z M791.9,156.6
		H840c-0.8-13.3-9-23.2-23.3-23.2C802.8,133.4,793,143.6,791.9,156.6z"/>
	<path fill="#FFFFFF" d="M860,180.3c7,2.9,14.6,5.2,23.3,5.2c13.5,0,18.3-5.9,18.3-12c0-6.8-8-9.7-19.6-12.1
		c-13.5-2.9-23.3-7.1-23.3-16.9c0-9.8,9.7-16.7,22.7-16.7c8.1,0,15.6,1.7,22.8,4.7l-2.2,5c-6.4-2.9-13.6-4.2-20.8-4.2
		c-9.5,0-16.5,4.6-16.5,11c0,6.3,6.7,9,18.9,11.4c14.4,2.9,24,7.1,24,17.5c0,9.6-7.1,17.8-24.4,17.8c-9.8,0-18.1-2.3-25.7-5.6
		L860,180.3z"/>
</g>
<g>
	<path fill="#FFFFFF" d="M87,185.1c2.2,0,8.6-3.2,13-6.5c32.8-25.1,47.7-58.1,59.9-92.6c9-25.5,13.9-62.4,16.1-75.9
		c0.4-2.3,0.4-3.5-0.2-4.2c-0.8-0.9-2.4-1.1-3.7-0.8c-8.2,1.9-32.9,11.4-85.1,5C49.5,5.6,24.5-4.4,10.2,9.1
		C-9.7,27.8,1,76.5,29.5,94.6c30.6,19.4,72.4,14.3,93.8,1.4c14.1-8.5,20.6-20.1,22.3-24.4c1.7-4.3-4.6-8.5-12.1-5.4
		c-7.5,3-18.1,11.1-25,14.7s-12.6,9.4-35.8,5.2c-10.9-1.9-0.9,4.3,5.5,5.1c9.7,1.3,18.3,2.8,38.2-9.5c19.2-11.7,23.6-11.8,19.2-5.5
		c-4.2,6.1-20.6,20.5-48.5,22.7c-28.5,2.3-50.3-5.9-65.1-24.7C9,57.6,9,33.3,14.7,22.8c6.7-12.5,23.3-9.9,32-8.4
		c9.5,1.7,38.8,5.7,66,6.6c29.1,0.9,47-2.9,53.6-4.5c0,0-1.6,8.2-3.4,21.4c-1.6,11.7-5.9,31.5-12.1,48.1
		c-23.7,63.2-55.8,85.2-63.7,85.2s-45.2-36.9-45.2-36.9s6.7,22.8,32.3,44.3C78.3,182.1,84.8,185.1,87,185.1z"/>
	<path fill="#FFFFFF" d="M39.3,77.6c0.5,1.2,6.5,5.3,14.2,4.8c6.7-0.4,10.6-1.7,14.3-2.7c4.3-1.2,9.8,0.3,13,1.5
		c3.1,1.2,0.4-3.1-2.2-4.3c-3-1.4-8-2.5-13.8-1s-8.6,2.4-12.9,2.8C47.5,79,38.8,76.4,39.3,77.6z"/>
</g>
</svg>
